

<svg fill="#000000" version="1.1" id="icon_x" xmlns="http://www.w3.org/2000/svg" xmlns:xlink="http://www.w3.org/1999/xlink" 
	 width="800px" height="800px" viewBox="0 0 32 32" xml:space="preserve">
<style type="text/css">
	.st0{fill:none;}
	.st1{opacity:0;fill-opacity:0;}
</style>
<rect id="_Transparent_Rectangle_" class="st0" width="32" height="32"/>
<path d="M16,2C8.3,2,2,8.3,2,16s6.3,14,14,14s14-6.3,14-14S23.7,2,16,2z M21.4,23L16,17.6L10.6,23L9,21.4l5.4-5.4L9,10.6L10.6,9
	l5.4,5.4L21.4,9l1.6,1.6L17.6,16l5.4,5.4L21.4,23z"/>
<path id="inner-path" class="st1" d="M21.4,23L16,17.6L10.6,23L9,21.4l5.4-5.4L9,10.6L10.6,9l5.4,5.4L21.4,9l1.6,1.6L17.6,16
	l5.4,5.4L21.4,23z"/>
</svg>

<svg width="800px" height="800px" viewBox="0 0 32 32" id="icon_add" data-name="Layer 1" xmlns="http://www.w3.org/2000/svg">
  <defs>
    <style>
      .cls-1 {
        fill: #ffffff;
        fill-opacity: 0;
      }

      .cls-2 {
        fill: none;
      }
    </style>
  </defs>
  <title>add--filled</title>
  <path d="M16,2A14.1725,14.1725,0,0,0,2,16,14.1725,14.1725,0,0,0,16,30,14.1725,14.1725,0,0,0,30,16,14.1725,14.1725,0,0,0,16,2Zm8,15H17v7H15V17H8V15h7V8h2v7h7Z" transform="translate(0 0)"/>
  <polygon id="inner-path" class="cls-1" points="24 17 17 17 17 24 15 24 15 17 8 17 8 15 15 15 15 8 17 8 17 15 24 15 24 17"/>
  <rect id="_Transparent_Rectangle_" data-name="&lt;Transparent Rectangle&gt;" class="cls-2" width="32" height="32"/>
</svg>